<svg width="18" height="22" viewBox="0 0 18 22" fill="none" xmlns="http://www.w3.org/2000/svg">
<path d="M8.28125 21.7734C3.56445 21.7734 0.439453 19.0586 0.439453 14.9766C0.439453 11.373 2.14844 10.2305 2.14844 7.98438C2.14844 7.49609 2.07031 6.96875 2.07031 6.65625C2.07031 6.14844 2.38281 5.82617 2.85156 5.82617C3.7207 5.82617 4.67773 6.50977 5.25391 7.7207C5.29297 7.54492 5.30273 7.36914 5.30273 7.18359C5.2832 5.30859 4.17969 3.73633 2.96875 2.28125C2.74414 2.01758 2.61719 1.73438 2.61719 1.45117C2.61719 0.728516 3.27148 0.347656 4.28711 0.347656C9.50195 0.347656 17.0605 4.04883 17.0605 12.8867C17.0605 18.2285 13.5449 21.7734 8.28125 21.7734ZM8.51562 18.7363C10.7812 18.7363 11.9531 17.1055 11.9531 15.1523C11.9531 13.1895 10.8301 11.1094 8.7207 10.1523C8.59375 10.0938 8.49609 10.1621 8.51562 10.3086C8.69141 11.8125 8.50586 13.2188 8.00781 13.9805C7.7832 13.3945 7.49023 12.8965 7.06055 12.5059C6.96289 12.418 6.85547 12.4668 6.8457 12.5938C6.68945 13.7754 5.49805 14.332 5.49805 16.0215C5.49805 17.6523 6.69922 18.7363 8.51562 18.7363Z" fill="#4E9FFF"/>
</svg>
