<svg width="24" height="20" viewBox="0 0 24 20" fill="none" xmlns="http://www.w3.org/2000/svg">
<path d="M1.08398 13.8945C0.703125 13.9043 0.361328 13.5625 0.361328 13.1621C0.361328 8.39648 3.01758 4.65625 6.89453 3.23047L6.60156 2.42969C6.33789 1.69727 6.62109 1.05273 7.28516 0.808594C7.91016 0.583984 8.56445 0.896484 8.82812 1.61914L11.3867 8.64062C11.5137 8.99219 11.748 9.09961 11.9727 9.02148C12.168 8.94336 12.2754 8.70898 12.1484 8.35742L11.377 6.22852C11.25 5.88672 11.3965 5.62305 11.7871 5.47656C12.6562 5.16406 13.4961 5.48633 13.8965 6.58984L14.2676 7.58594C14.3945 7.94727 14.6191 8.05469 14.8535 7.9668C15.0586 7.89844 15.1562 7.66406 15.0293 7.3125L14.6387 6.22852C14.5117 5.87695 14.6387 5.62305 15.0488 5.47656C15.9277 5.1543 16.8066 5.58398 17.168 6.58008L17.3633 7.09766C17.4902 7.44922 17.7246 7.55664 17.9492 7.47852C18.1543 7.41016 18.2617 7.16602 18.1348 6.82422L17.8418 6.0332C17.7637 5.80859 17.8418 5.62305 18.0762 5.54492C19.0234 5.19336 20.2148 5.96484 20.8203 7.625L21.4844 9.45117C23.0859 13.8457 21.6797 17.2832 17.5586 18.7773C14.4727 19.9004 11.377 19.2168 8.68164 15.877L5.44922 11.8535C5.33203 11.707 5.22461 11.5312 5.13672 11.3164C4.92188 10.7207 5.20508 10.0859 5.88867 9.8418C6.37695 9.65625 6.80664 9.80273 7.19727 10.2227L9.6875 12.8984C9.86328 13.084 10.0098 13.1328 10.1562 13.084C10.3027 13.0254 10.4004 12.8496 10.3125 12.6152L7.39258 4.58789C4.05273 5.80859 1.875 8.95312 1.77734 13.1816C1.76758 13.582 1.47461 13.8848 1.08398 13.8945Z" fill="#BED7FE"/>
</svg>
